<svg
  width="200"
  height="200"
  viewBox="0 0 200 200"
  fill="none"
  xmlns="http://www.w3.org/2000/svg"
>
  <rect width="200" height="200" rx="20" fill="#13341E" />
  <g filter="url(#filter0_i_428_2)">
    <path
      d="M134.679 32C134.737 47.9278 134.795 63.8557 134.855 80.2662C138.638 77.9365 138.638 77.9365 142.392 75.5632C142.92 75.2394 143.459 74.9362 143.996 74.6292C144.01 81.3756 143.981 88.1219 143.946 94.8682C143.936 96.7422 143.928 98.6161 143.92 100.49C143.915 101.829 143.908 103.169 143.901 104.508C143.897 105.3 143.893 106.091 143.89 106.883C143.865 114.717 143.865 114.717 143.084 117.611C143.028 117.827 143.028 117.827 142.97 118.047C140.564 126.932 134.676 132.827 126.9 137.302C126.059 137.784 125.217 138.262 124.374 138.74C123.279 139.361 122.189 139.99 121.099 140.621C120.911 140.729 120.723 140.838 120.53 140.95C119.438 141.582 118.349 142.218 117.261 142.857C115.469 143.909 113.665 144.939 111.85 145.953C110.707 146.592 109.567 147.236 108.431 147.887C108.284 147.972 108.137 148.056 107.986 148.143C107.508 148.417 107.03 148.692 106.552 148.966C103.805 150.544 101.054 152.112 98.2899 153.66C95.6637 155.13 93.0491 156.621 90.4386 158.119C88.7935 159.063 87.1414 159.994 85.4845 160.917C84.4042 161.521 83.3358 162.142 82.2728 162.777C75.5817 166.756 69.5935 168.128 61.9004 167.991C62.0957 167.371 62.2975 166.8 62.6215 166.236C62.7292 166.046 62.7292 166.046 62.8392 165.851C62.951 165.657 62.951 165.657 63.0651 165.459C63.6354 164.464 64.168 163.457 64.6761 162.43C65.4092 160.948 66.1784 159.487 66.9545 158.027C67.2344 157.499 67.5141 156.972 67.7937 156.444C67.8619 156.315 67.9301 156.186 68.0005 156.054C68.5734 154.971 69.1385 153.885 69.7013 152.798C70.4431 151.366 71.2084 149.948 71.9842 148.534C72.6861 147.25 73.3609 145.952 74.0303 144.65C74.8648 143.027 75.7188 141.417 76.5971 139.818C77.2221 138.677 77.8275 137.527 78.4251 136.371C79.1894 134.894 79.9716 133.429 80.7701 131.97C81.2673 131.062 81.7614 130.152 82.2507 129.24C82.3064 129.136 82.3621 129.032 82.4196 128.925C82.6921 128.416 82.9644 127.908 83.2364 127.399C83.3349 127.215 83.4333 127.031 83.5348 126.842C83.4453 127.009 83.6217 126.679 83.5348 126.842C83.4115 127.08 83.6557 126.608 83.5348 126.842C83.5277 126.855 94.97 144.236 95.5 144C95.6718 143.922 85.7503 124.404 85.9273 124.324C86.2111 124.2 86.2111 124.2 86.5007 124.073C86.701 123.983 86.9013 123.893 87.1077 123.8C87.6668 123.549 88.2273 123.301 88.7883 123.054C89.8015 122.608 90.8132 122.157 91.8252 121.708C92.093 121.589 92.3608 121.47 92.6287 121.351C95.238 120.195 97.8199 118.984 100.397 117.759C101.188 117.383 101.98 117.013 102.774 116.647C104.912 115.66 107.034 114.653 109.134 113.589C110.13 113.085 111.131 112.597 112.145 112.128C113.769 111.372 115.346 110.532 116.924 109.684C117.286 109.49 117.648 109.297 118.01 109.104C120.03 108.021 122.038 106.919 124.028 105.782C125.483 104.952 126.954 104.154 128.432 103.366C128.6 103.276 128.769 103.186 128.942 103.093C129.091 103.013 129.24 102.933 129.394 102.852C129.779 102.645 129.779 102.645 130.109 102.285C129.988 102.316 129.868 102.347 129.743 102.379C129.158 102.528 128.573 102.677 127.988 102.825C127.799 102.873 127.61 102.922 127.415 102.972C125.949 103.342 124.477 103.68 123.001 104.01C120.205 104.636 117.424 105.311 114.644 106.004C113.32 106.334 111.996 106.661 110.672 106.989C110.54 107.022 110.408 107.055 110.272 107.088C107.819 107.696 105.363 108.292 102.904 108.88C102.642 108.943 102.642 108.943 102.375 109.007C102.203 109.048 102.03 109.089 101.853 109.132C101.511 109.214 101.169 109.296 100.827 109.378C100.578 109.437 100.578 109.437 100.325 109.498C98.4367 109.95 96.5503 110.411 94.6641 110.873C94.5062 110.912 94.3483 110.95 94.1856 110.99C93.3269 111.2 92.4683 111.411 91.6097 111.622C91.8348 111.022 92.0936 110.487 92.4289 109.942C92.5234 109.787 92.6178 109.633 92.7151 109.474C92.8181 109.307 92.921 109.14 93.027 108.968C93.2514 108.601 93.4757 108.235 93.7 107.868C93.8182 107.675 93.9364 107.482 94.0581 107.284C94.6689 106.287 95.277 105.289 95.8837 104.289C95.9458 104.187 96.0079 104.085 96.0719 103.979C97.3653 101.847 98.6246 99.695 99.8794 97.5397C100.437 96.5831 101 95.6303 101.564 94.6777C103.688 91.0839 105.747 87.4522 107.813 83.8246C108.188 83.1668 108.563 82.5092 108.938 81.8517C109.105 81.5579 109.273 81.2641 109.44 80.9703C109.928 80.1144 110.417 79.2591 110.907 78.4042C112.412 75.7732 113.895 73.1306 115.36 70.4764C115.708 69.8474 116.057 69.2195 116.408 68.5918C116.585 68.2735 116.762 67.9552 116.94 67.6368C117.104 67.3417 117.269 67.0467 117.434 66.7518C118.12 65.519 118.766 64.2709 119.385 63.0031C118.313 64.1534 117.273 65.315 116.288 66.5413C115.806 67.1321 115.312 67.7102 114.815 68.2877C114.055 69.1707 113.311 70.0643 112.578 70.9692C112.128 71.5191 111.67 72.0617 111.211 72.6035C110.487 73.4575 109.775 74.3207 109.069 75.19C108.613 75.7457 108.149 76.2942 107.684 76.8422C107.12 77.506 106.565 78.1739 106.025 78.8569C105.404 79.6413 104.762 80.4048 104.115 81.1669C103.602 81.7715 103.097 82.381 102.597 82.9965C102.019 83.7082 101.432 84.4112 100.839 85.1104C100.127 85.95 99.4256 86.7967 98.7314 87.6509C98.1763 88.3326 97.6178 89.0115 97.0593 89.6904C96.1193 90.8334 95.1818 91.9784 94.2466 93.1254C94.1254 93.2737 94.0041 93.422 93.8792 93.5747C93.4739 94.0705 93.0691 94.5667 92.6645 95.0631C92.5783 95.1687 92.4921 95.2744 92.4033 95.3832C91.1548 96.915 89.9181 98.4548 88.7049 100.015C88.4236 100.376 88.141 100.735 87.8583 101.095C83.3246 106.877 79.4286 112.974 76.1398 119.548C76.0494 119.729 75.959 119.909 75.8659 120.095C74.2921 123.258 72.9063 126.497 71.5691 129.765C71.5208 129.883 71.4725 130.002 71.4227 130.123C69.6672 134.423 68.0586 138.781 66.4355 143.132C63.9623 149.763 61.4302 156.367 58.7014 162.897C58.5577 163.241 58.4142 163.585 58.2707 163.929C57.9983 164.583 57.7247 165.235 57.4506 165.888C57.3286 166.179 57.3286 166.179 57.2042 166.476C57.0933 166.738 57.0933 166.738 56.9803 167.006C56.9158 167.159 56.8514 167.312 56.785 167.469C56.6266 167.815 56.6266 167.815 56.4508 167.991C56.0407 167.998 55.6304 167.998 55.2202 167.991C55.031 155.155 55.0113 142.321 55.0119 129.485C55.012 127.226 55.0103 124.968 55.0078 122.709C55.0053 120.352 55.0041 117.994 55.0042 115.636C55.0043 114.328 55.0038 113.019 55.0019 111.711C55.0001 110.491 55.0002 109.271 55.0015 108.051C55.0017 107.608 55.0013 107.164 55.0002 106.721C54.9802 97.8918 56.6256 89.7488 62.7794 83.0846C62.9044 82.9492 62.9044 82.9492 63.0319 82.811C65.1651 80.53 67.7028 78.8216 70.2535 77.0476C70.9103 76.5895 71.564 76.1271 72.2174 75.6641C72.4618 75.491 72.7063 75.3178 72.9508 75.1446C73.0708 75.0596 73.1907 74.9746 73.3144 74.887C73.6818 74.627 74.0496 74.3676 74.4175 74.1083C76.3644 72.7358 78.2958 71.3425 80.2221 69.9412C82.8747 68.0115 85.5547 66.1232 88.2587 64.2665C89.3267 63.5322 90.3874 62.7878 91.4478 62.0426C92.5948 61.2368 93.7444 60.4349 94.8949 59.6341C96.0589 58.8237 97.221 58.0107 98.3778 57.19C99.7071 56.2469 101.044 55.3146 102.381 54.3833C103.924 53.3095 105.462 52.231 107 51.1511C107.73 50.6389 108.459 50.1272 109.189 49.6154C109.482 49.4099 109.775 49.2044 110.068 48.9988C110.654 48.5878 111.24 48.1768 111.826 47.7658C111.971 47.6641 112.116 47.5624 112.265 47.4576C112.559 47.2518 112.852 47.046 113.146 46.8402C113.872 46.331 114.598 45.8216 115.323 45.312C117.052 44.0985 118.783 42.8887 120.516 41.6817C121.606 40.9226 122.693 40.1615 123.78 39.3985C126.332 37.6071 128.886 35.819 131.458 34.0581C132.311 33.4724 133.144 32.8637 133.969 32.2401C134.328 32 134.328 32 134.679 32Z"
      fill="#4E7145"
    />
  </g>
  <defs>
    <filter
      id="filter0_i_428_2"
      x="55"
      y="32"
      width="93"
      height="140"
      filterUnits="userSpaceOnUse"
      color-interpolation-filters="sRGB"
    >
      <feFlood flood-opacity="0" result="BackgroundImageFix" />
      <feBlend
        mode="normal"
        in="SourceGraphic"
        in2="BackgroundImageFix"
        result="shape"
      />
      <feColorMatrix
        in="SourceAlpha"
        type="matrix"
        values="0 0 0 0 0 0 0 0 0 0 0 0 0 0 0 0 0 0 127 0"
        result="hardAlpha"
      />
      <feOffset dx="4" dy="4" />
      <feGaussianBlur stdDeviation="2" />
      <feComposite in2="hardAlpha" operator="arithmetic" k2="-1" k3="1" />
      <feColorMatrix
        type="matrix"
        values="0 0 0 0 0 0 0 0 0 0 0 0 0 0 0 0 0 0 0.25 0"
      />
      <feBlend mode="normal" in2="shape" result="effect1_innerShadow_428_2" />
    </filter>
  </defs>
</svg>
